<svg width="210" height="28" viewBox="0 0 210 28" fill="none" xmlns="http://www.w3.org/2000/svg">
<path d="M111.641 0V27.6529H108.797V0.655645L111.641 0Z" fill="#9FC0A2"/>
<path d="M115.607 4.6281C115.094 4.6281 114.646 4.43526 114.262 4.04959C113.877 3.66391 113.685 3.21396 113.685 2.69972C113.685 2.15978 113.877 1.70982 114.262 1.34986C114.646 0.964186 115.094 0.771349 115.607 0.771349C116.145 0.771349 116.593 0.964186 116.952 1.34986C117.336 1.70982 117.528 2.15978 117.528 2.69972C117.528 3.21396 117.336 3.66391 116.952 4.04959C116.593 4.43526 116.145 4.6281 115.607 4.6281ZM117.029 8.33058V27.6529H114.185V8.33058H117.029Z" fill="#9FC0A2"/>
<path d="M129.142 25.416C130.167 25.416 131.153 25.2103 132.101 24.7989C133.049 24.3875 133.933 23.7833 134.753 22.9862L136.521 24.9146C135.496 25.8916 134.343 26.6501 133.062 27.1901C131.781 27.73 130.449 28 129.065 28C127.707 28 126.426 27.7429 125.222 27.2286C124.018 26.7144 122.98 26.0073 122.109 25.1074C121.238 24.2075 120.546 23.1405 120.034 21.9063C119.521 20.6722 119.265 19.3609 119.265 17.9724C119.265 16.584 119.521 15.2856 120.034 14.0771C120.546 12.843 121.238 11.7759 122.109 10.876C122.98 9.97612 124.018 9.26905 125.222 8.75482C126.426 8.21487 127.707 7.9449 129.065 7.9449C130.449 7.9449 131.794 8.21487 133.101 8.75482C134.433 9.29476 135.599 10.0404 136.598 10.9917L134.791 13.0744C134.023 12.2773 133.139 11.6602 132.14 11.2231C131.141 10.786 130.128 10.5675 129.104 10.5675C128.13 10.5675 127.208 10.7603 126.337 11.146C125.465 11.5317 124.71 12.0588 124.069 12.7273C123.454 13.3958 122.967 14.18 122.609 15.0799C122.25 15.9798 122.071 16.944 122.071 17.9724C122.071 19.0266 122.25 20.0165 122.609 20.9421C122.993 21.8421 123.493 22.6263 124.108 23.2948C124.748 23.9376 125.504 24.4518 126.375 24.8375C127.246 25.2231 128.168 25.416 129.142 25.416Z" fill="#9FC0A2"/>
<path d="M139.084 27.6529V0.655645L141.928 0V10.6061C142.671 9.73186 143.555 9.07622 144.58 8.63912C145.605 8.17631 146.745 7.9449 148 7.9449C150.178 7.9449 151.959 8.63912 153.342 10.0275C154.726 11.416 155.417 13.2158 155.417 15.427V27.6529H152.612V16.0055C152.612 14.3085 152.125 12.9587 151.151 11.9559C150.178 10.9532 148.871 10.4518 147.232 10.4518C146.079 10.4518 145.041 10.7089 144.119 11.2231C143.222 11.7374 142.492 12.4702 141.928 13.4215V27.6529H139.084Z" fill="#9FC0A2"/>
<path d="M174.473 25.6088C173.397 26.4059 172.269 27.0101 171.091 27.4215C169.938 27.8072 168.67 28 167.286 28C165.903 28 164.596 27.7429 163.366 27.2286C162.162 26.7144 161.111 26.0073 160.215 25.1074C159.344 24.2075 158.652 23.1533 158.139 21.9449C157.627 20.7107 157.371 19.3866 157.371 17.9724C157.371 16.584 157.614 15.2856 158.101 14.0771C158.613 12.8687 159.292 11.8145 160.138 10.9146C160.983 10.0147 161.983 9.30762 163.135 8.79339C164.314 8.27915 165.557 8.02204 166.863 8.02204C168.144 8.02204 169.336 8.27915 170.437 8.79339C171.565 9.30762 172.525 10.0147 173.32 10.9146C174.14 11.8145 174.78 12.8687 175.241 14.0771C175.728 15.2856 175.971 16.584 175.971 17.9724V18.8595H160.176C160.381 20.7622 161.163 22.3434 162.521 23.6033C163.878 24.8632 165.505 25.4931 167.401 25.4931C168.401 25.4931 169.374 25.3388 170.322 25.0303C171.27 24.7218 172.064 24.2847 172.705 23.719L174.473 25.6088ZM166.786 10.5289C165.121 10.5289 163.673 11.0946 162.444 12.2259C161.24 13.3572 160.509 14.8099 160.253 16.584H173.128C172.871 14.8871 172.141 13.4601 170.937 12.303C169.758 11.1203 168.375 10.5289 166.786 10.5289Z" fill="#9FC0A2"/>
<path d="M177.406 24.9917L179.136 23.1405C180.007 23.9633 180.98 24.6061 182.057 25.0689C183.158 25.506 184.273 25.7245 185.4 25.7245C186.937 25.7245 188.193 25.4031 189.166 24.7603C190.14 24.1175 190.627 23.2819 190.627 22.2534C190.627 21.4307 190.332 20.7879 189.743 20.3251C189.179 19.8365 188.282 19.5023 187.053 19.3223L183.709 18.8595C181.788 18.5767 180.353 18.011 179.405 17.1625C178.482 16.2883 178.021 15.1185 178.021 13.6529C178.021 12.0331 178.7 10.696 180.058 9.64187C181.416 8.56198 183.145 8.02204 185.246 8.02204C186.63 8.02204 187.937 8.22773 189.166 8.63912C190.422 9.0505 191.639 9.69329 192.817 10.5675L191.318 12.4959C190.242 11.7759 189.192 11.236 188.167 10.876C187.168 10.5161 186.143 10.3361 185.093 10.3361C183.786 10.3361 182.71 10.6318 181.864 11.2231C181.045 11.8145 180.635 12.5859 180.635 13.5372C180.635 14.36 180.916 15.0028 181.48 15.4656C182.044 15.9027 182.953 16.2112 184.209 16.3912L187.552 16.854C189.474 17.1111 190.909 17.6896 191.857 18.5895C192.83 19.4637 193.317 20.6336 193.317 22.0992C193.317 22.9219 193.112 23.7062 192.702 24.4518C192.318 25.1717 191.767 25.8017 191.049 26.3416C190.358 26.8558 189.538 27.2672 188.59 27.5758C187.642 27.8586 186.617 28 185.515 28C183.927 28 182.428 27.7429 181.019 27.2286C179.635 26.6887 178.431 25.9431 177.406 24.9917Z" fill="#9FC0A2"/>
<path d="M194.089 24.9917L195.819 23.1405C196.69 23.9633 197.664 24.6061 198.74 25.0689C199.841 25.506 200.956 25.7245 202.083 25.7245C203.62 25.7245 204.876 25.4031 205.849 24.7603C206.823 24.1175 207.31 23.2819 207.31 22.2534C207.31 21.4307 207.015 20.7879 206.426 20.3251C205.862 19.8365 204.965 19.5023 203.736 19.3223L200.392 18.8595C198.471 18.5767 197.036 18.011 196.088 17.1625C195.166 16.2883 194.704 15.1185 194.704 13.6529C194.704 12.0331 195.383 10.696 196.741 9.64187C198.099 8.56198 199.829 8.02204 201.929 8.02204C203.313 8.02204 204.62 8.22773 205.849 8.63912C207.105 9.0505 208.322 9.69329 209.5 10.5675L208.002 12.4959C206.925 11.7759 205.875 11.236 204.85 10.876C203.851 10.5161 202.826 10.3361 201.776 10.3361C200.469 10.3361 199.393 10.6318 198.547 11.2231C197.728 11.8145 197.318 12.5859 197.318 13.5372C197.318 14.36 197.599 15.0028 198.163 15.4656C198.727 15.9027 199.636 16.2112 200.892 16.3912L204.235 16.854C206.157 17.1111 207.592 17.6896 208.54 18.5895C209.513 19.4637 210 20.6336 210 22.0992C210 22.9219 209.795 23.7062 209.385 24.4518C209.001 25.1717 208.45 25.8017 207.733 26.3416C207.041 26.8558 206.221 27.2672 205.273 27.5758C204.325 27.8586 203.3 28 202.198 28C200.61 28 199.111 27.7429 197.702 27.2286C196.318 26.6887 195.114 25.9431 194.089 24.9917Z" fill="#9FC0A2"/>
<path d="M0 27.4394V2.38593H10.3403C12.7495 2.38593 14.6816 3.06596 16.1366 4.426C17.5916 5.78604 18.3191 7.57558 18.3191 9.79459C18.3191 12.0136 17.5916 13.8031 16.1366 15.1632C14.6816 16.5232 12.7495 17.2033 10.3403 17.2033H2.75503V27.4394H0ZM10.0183 4.8197H2.75503V14.8411H10.0183C11.7357 14.8411 13.0834 14.3877 14.0614 13.481C15.0632 12.5743 15.5641 11.3455 15.5641 9.79459C15.5641 8.26753 15.0632 7.06258 14.0614 6.17974C13.0834 5.27304 11.7357 4.8197 10.0183 4.8197Z" fill="#F2F5F3"/>
<path d="M21.1206 27.4394V9.97355H23.7325V13.5168C24.1857 12.2999 24.8297 11.3575 25.6646 10.6894C26.5233 9.99741 27.5013 9.65143 28.5985 9.65143C28.9086 9.65143 29.1948 9.67529 29.4572 9.72301C29.7196 9.74687 29.982 9.80652 30.2444 9.90197V12.2641C29.9581 12.1687 29.648 12.0971 29.3141 12.0494C29.004 11.9778 28.7058 11.942 28.4196 11.942C27.3462 11.942 26.404 12.2522 25.593 12.8726C24.8059 13.493 24.1857 14.3639 23.7325 15.4853V27.4394H21.1206Z" fill="#F2F5F3"/>
<path d="M45.2114 25.4351C44.2096 26.2225 43.172 26.8071 42.0986 27.1888C41.0252 27.5706 39.8802 27.7615 38.6637 27.7615C37.4472 27.7615 36.3023 27.5348 35.2289 27.0815C34.1794 26.6043 33.261 25.96 32.4739 25.1488C31.7106 24.3375 31.1023 23.3831 30.6491 22.2855C30.2198 21.1641 30.0051 19.9711 30.0051 18.7065C30.0051 17.4419 30.2078 16.2608 30.6133 15.1632C31.0427 14.0418 31.6271 13.0873 32.3665 12.2999C33.106 11.4887 33.9766 10.8564 34.9784 10.403C35.9803 9.92583 37.0656 9.68722 38.2344 9.68722C39.3793 9.68722 40.4408 9.9139 41.4188 10.3672C42.3967 10.8206 43.2435 11.441 43.9591 12.2284C44.6747 12.9919 45.2353 13.9224 45.6408 15.02C46.0463 16.0937 46.249 17.251 46.249 18.4917V19.2791H32.5454C32.6647 21.0448 33.3207 22.5241 34.5133 23.7172C35.706 24.8863 37.1252 25.4709 38.7711 25.4709C39.6775 25.4709 40.5481 25.3158 41.383 25.0056C42.2417 24.6716 42.9692 24.2302 43.5655 23.6814L45.2114 25.4351ZM38.1986 11.942C36.7674 11.942 35.539 12.455 34.5133 13.481C33.4876 14.507 32.8555 15.8194 32.617 17.418H43.6729C43.4821 15.8432 42.8738 14.5428 41.8481 13.5168C40.8463 12.467 39.6298 11.942 38.1986 11.942Z" fill="#F2F5F3"/>
<path d="M50.4707 23.5024V12.121H46.857V9.97355H50.4707V5.1776L53.0826 4.56916V9.97355H58.0918V12.121H53.0826V22.8224C53.0826 23.7529 53.2735 24.421 53.6551 24.8267C54.0606 25.2323 54.7166 25.4351 55.623 25.4351C56.0762 25.4351 56.4817 25.3993 56.8395 25.3277C57.1973 25.2561 57.6147 25.1368 58.0918 24.9698V27.2962C57.6147 27.4632 57.1138 27.5825 56.589 27.6541C56.0643 27.7257 55.5514 27.7615 55.0505 27.7615C53.5478 27.7615 52.4028 27.4036 51.6157 26.6878C50.8524 25.9481 50.4707 24.8863 50.4707 23.5024Z" fill="#F2F5F3"/>
<path d="M62.5533 23.5024V12.121H58.9396V9.97355H62.5533V5.1776L65.1652 4.56916V9.97355H70.1744V12.121H65.1652V22.8224C65.1652 23.7529 65.356 24.421 65.7377 24.8267C66.1432 25.2323 66.7992 25.4351 67.7056 25.4351C68.1588 25.4351 68.5643 25.3993 68.9221 25.3277C69.2799 25.2561 69.6973 25.1368 70.1744 24.9698V27.2962C69.6973 27.4632 69.1964 27.5825 68.6716 27.6541C68.1469 27.7257 67.634 27.7615 67.1331 27.7615C65.6304 27.7615 64.4854 27.4036 63.6983 26.6878C62.935 25.9481 62.5533 24.8863 62.5533 23.5024Z" fill="#F2F5F3"/>
<path d="M73.5351 5.67867C73.0104 5.67867 72.5572 5.49972 72.1755 5.14181C71.8177 4.76004 71.6388 4.3067 71.6388 3.78177C71.6388 3.2807 71.8177 2.85121 72.1755 2.49331C72.5572 2.11154 73.0104 1.92065 73.5351 1.92065C74.036 1.92065 74.4654 2.11154 74.8232 2.49331C75.2048 2.85121 75.3957 3.2807 75.3957 3.78177C75.3957 4.3067 75.2168 4.76004 74.859 5.14181C74.5012 5.49972 74.0599 5.67867 73.5351 5.67867ZM74.8232 9.97355V27.4394H72.2113V9.97355H74.8232Z" fill="#F2F5F3"/>
<path d="M92.808 25.4351C91.8062 26.2225 90.7686 26.8071 89.6952 27.1888C88.6218 27.5706 87.4769 27.7615 86.2604 27.7615C85.0439 27.7615 83.8989 27.5348 82.8255 27.0815C81.776 26.6043 80.8577 25.96 80.0705 25.1488C79.3072 24.3375 78.6989 23.3831 78.2457 22.2855C77.8164 21.1641 77.6017 19.9711 77.6017 18.7065C77.6017 17.4419 77.8045 16.2608 78.21 15.1632C78.6393 14.0418 79.2237 13.0873 79.9632 12.2999C80.7026 11.4887 81.5732 10.8564 82.5751 10.403C83.5769 9.92583 84.6622 9.68722 85.831 9.68722C86.976 9.68722 88.0374 9.9139 89.0154 10.3672C89.9934 10.8206 90.8401 11.441 91.5557 12.2284C92.2713 12.9919 92.8319 13.9224 93.2374 15.02C93.6429 16.0937 93.8456 17.251 93.8456 18.4917V19.2791H80.1421C80.2613 21.0448 80.9173 22.5241 82.1099 23.7172C83.3026 24.8863 84.7218 25.4709 86.3677 25.4709C87.2741 25.4709 88.1447 25.3158 88.9796 25.0056C89.8383 24.6716 90.5658 24.2302 91.1622 23.6814L92.808 25.4351ZM85.7952 11.942C84.364 11.942 83.1356 12.455 82.1099 13.481C81.0843 14.507 80.4521 15.8194 80.2136 17.418H91.2695C91.0787 15.8432 90.4704 14.5428 89.4447 13.5168C88.4429 12.467 87.2264 11.942 85.7952 11.942Z" fill="#F2F5F3"/>
<path d="M96.5162 27.4394V9.97355H99.1282V13.5168C99.5814 12.2999 100.225 11.3575 101.06 10.6894C101.919 9.99741 102.897 9.65143 103.994 9.65143C104.304 9.65143 104.59 9.67529 104.853 9.72301C105.115 9.74687 105.378 9.80652 105.64 9.90197V12.2641C105.354 12.1687 105.044 12.0971 104.71 12.0494C104.4 11.9778 104.102 11.942 103.815 11.942C102.742 11.942 101.8 12.2522 100.989 12.8726C100.202 13.493 99.5814 14.3639 99.1282 15.4853V27.4394H96.5162Z" fill="#F2F5F3"/>
</svg>
