<svg width="18" height="18" viewBox="0 0 100 100" xmlns="http://www.w3.org/2000/svg">
  <g>
    <circle style="fill:#df5353" cx="50" cy="50" r="50"></circle>
    <path fill="#fff" d="M31.8 22.22c-3.675 0-7.052.46-10.132 1.38-3.08.918-5.945 2.106-8.593 3.565l4.298 8.674c2.323-1.189 4.592-2.136 6.808-2.838a22.138 22.138 0 0 1 6.728-1.053c2.27 0 4.025.46 5.268 1.378 1.297.865 1.946 2.16 1.946 3.89s-.541 3.242-1.622 4.539c-1.027 1.243-2.756 2.73-5.188 4.458-2.756 2-4.7 3.918-5.836 5.755-1.134 1.837-1.702 4.107-1.702 6.808v2.92h10.457v-2.35c0-1.135.135-2.082.406-2.839.324-.756.918-1.54 1.783-2.35.864-.81 2.079-1.784 3.646-2.918 2.107-1.568 3.863-3.026 5.268-4.376 1.405-1.405 2.46-2.92 3.162-4.541.703-1.621 1.054-3.54 1.054-5.755 0-4.161-1.568-7.592-4.702-10.294-3.08-2.702-7.43-4.052-13.05-4.052zm38.664 0c-3.675 0-7.053.46-10.133 1.38-3.08.918-5.944 2.106-8.591 3.565l4.295 8.674c2.324-1.189 4.593-2.136 6.808-2.838a22.138 22.138 0 0 1 6.728-1.053c2.27 0 4.026.46 5.269 1.378 1.297.865 1.946 2.16 1.946 3.89s-.54 3.242-1.62 4.539c-1.027 1.243-2.757 2.73-5.189 4.458-2.756 2-4.7 3.918-5.835 5.755-1.135 1.837-1.703 4.107-1.703 6.808v2.92h10.457v-2.35c0-1.135.134-2.082.404-2.839.324-.756.918-1.54 1.783-2.35.865-.81 2.081-1.784 3.648-2.918 2.108-1.568 3.864-3.026 5.269-4.376 1.405-1.405 2.46-2.92 3.162-4.541.702-1.621 1.053-3.54 1.053-5.755 0-4.161-1.567-7.592-4.702-10.294-3.08-2.702-7.43-4.052-13.05-4.052zM29.449 68.504c-1.945 0-3.593.513-4.944 1.54-1.351.973-2.027 2.703-2.027 5.188 0 2.378.676 4.108 2.027 5.188 1.35 1.027 3 1.54 4.944 1.54 1.892 0 3.512-.513 4.863-1.54 1.35-1.08 2.026-2.81 2.026-5.188 0-2.485-.675-4.215-2.026-5.188-1.351-1.027-2.971-1.54-4.863-1.54zm38.663 0c-1.945 0-3.592.513-4.943 1.54-1.35.973-2.026 2.703-2.026 5.188 0 2.378.675 4.108 2.026 5.188 1.351 1.027 2.998 1.54 4.943 1.54 1.891 0 3.513-.513 4.864-1.54 1.351-1.08 2.027-2.81 2.027-5.188 0-2.485-.676-4.215-2.027-5.188-1.35-1.027-2.973-1.54-4.864-1.54z"></path>
  </g>
</svg>