<svg width="18" height="18" viewBox="0 0 100 100" xmlns="http://www.w3.org/2000/svg">
  <g>
    <circle style="fill:#56b4e9" cx="50" cy="50" r="50"></circle>
    <path fill="#fff" d="M37.734 21.947c-3.714 0-7.128.464-10.242 1.393-3.113.928-6.009 2.13-8.685 3.605l4.343 8.766c2.35-1.202 4.644-2.157 6.883-2.867a22.366 22.366 0 0 1 6.799-1.065c2.294 0 4.07.464 5.326 1.393 1.311.874 1.967 2.186 1.967 3.933 0 1.748-.546 3.277-1.639 4.588-1.038 1.257-2.786 2.758-5.244 4.506-2.786 2.021-4.751 3.961-5.898 5.819-1.147 1.857-1.721 4.15-1.721 6.88v2.952h10.568v-2.377c0-1.147.137-2.103.41-2.868.328-.764.93-1.557 1.803-2.376.874-.82 2.104-1.803 3.688-2.95 2.13-1.584 3.906-3.058 5.326-4.424 1.42-1.42 2.485-2.95 3.195-4.59.71-1.638 1.065-3.576 1.065-5.816 0-4.206-1.584-7.675-4.752-10.406-3.114-2.731-7.51-4.096-13.192-4.096zm24.745.819l2.048 39.084h9.75l2.047-39.084zM35.357 68.73c-1.966 0-3.632.52-4.998 1.557-1.365.983-2.047 2.732-2.047 5.244 0 2.404.682 4.152 2.047 5.244 1.366 1.038 3.032 1.557 4.998 1.557 1.912 0 3.55-.519 4.916-1.557 1.366-1.092 2.05-2.84 2.05-5.244 0-2.512-.684-4.26-2.05-5.244-1.365-1.038-3.004-1.557-4.916-1.557zm34.004 0c-1.966 0-3.632.52-4.998 1.557-1.365.983-2.049 2.732-2.049 5.244 0 2.404.684 4.152 2.05 5.244 1.365 1.038 3.03 1.557 4.997 1.557 1.912 0 3.55-.519 4.916-1.557 1.366-1.092 2.047-2.84 2.047-5.244 0-2.512-.681-4.26-2.047-5.244-1.365-1.038-3.004-1.557-4.916-1.557z"></path>
  </g>
</svg>