<svg width="18" height="18" viewBox="0 0 100 100" xmlns="http://www.w3.org/2000/svg">
  <g>
    <circle style="fill:#e69f00" cx="50" cy="50" r="50"></circle>
    <path fill="#fff" d="M40.436 60.851q0-4.66 1.957-7.83 1.958-3.17 6.712-6.619 4.195-2.983 5.967-5.127 1.864-2.237 1.864-5.22 0-2.983-2.237-4.475-2.144-1.585-6.06-1.585-3.915 0-7.737 1.212t-7.83 3.263l-4.941-9.975q4.568-2.517 9.881-4.101 5.314-1.585 11.653-1.585 9.695 0 15.008 4.661 5.407 4.661 5.407 11.839 0 3.822-1.212 6.619-1.212 2.796-3.635 5.22-2.424 2.33-6.06 5.034-2.703 1.958-4.195 3.356-1.491 1.398-2.05 2.703-.467 1.305-.467 3.263v2.703H40.436zm-1.492 18.924q0-4.288 2.33-5.966 2.331-1.771 5.687-1.771 3.263 0 5.594 1.771 2.33 1.678 2.33 5.966 0 4.102-2.33 5.966-2.331 1.772-5.594 1.772-3.356 0-5.686-1.772-2.33-1.864-2.33-5.966z"></path>
  </g>
</svg>