<?xml version="1.0" encoding="UTF-8"?>
<svg width="100" height="100" version="1.1" viewBox="0 0 26.458 26.458" xmlns="http://www.w3.org/2000/svg" xmlns:cc="http://creativecommons.org/ns#" xmlns:dc="http://purl.org/dc/elements/1.1/" xmlns:rdf="http://www.w3.org/1999/02/22-rdf-syntax-ns#">
  <metadata>
    <rdf:RDF>
      <cc:Work rdf:about="">
        <dc:format>image/svg+xml</dc:format>
        <dc:type rdf:resource="http://purl.org/dc/dcmitype/StillImage"/>
        <dc:title/>
      </cc:Work>
    </rdf:RDF>
  </metadata>
  <rect y="-7.7915e-7" width="26.458" height="26.458" rx="6.944" ry="6.944" fill="#566876"/>
  <path d="m19.535 2.1597c-1.5948 0.18887-2.9151 0.40764-4.1957 1.3481-10.905-0.76704-13.718 6.7993-13.098 11.693 1.2709 9.4193 14.114 11.937 18.366 5.5731-3.3632 3.4773-8.7091 3.9545-12.797 1.3936-4.0874-2.5608-6.1049-7.8579-3.7603-12.297 2.3446-4.439 6.4668-5.888 11.001-5.0431 1.0981-0.64062 2.3608-1.4547 3.4588-1.4401l-0.76577 2.1955 5.7615 9.6556c-0.19807 2.5544-2.4661 2.7615-2.4661 2.7615-0.25961-0.66457-0.73844-1.329-2.1876-2.7272-1.4492-1.3981-7.8909-4.5981-7.1332-7.3225-0.90439 3.1479 4.6586 6.394 6.3434 7.9803 1.6847 1.5863 2.4513 2.7286 2.6181 3.0526 0 0 4.2436-1.1313 3.5412-4.0335l-5.3887-9.7763z" stroke="#000" stroke-linejoin="round" stroke-width=".45181" style="paint-order:normal"/>
</svg>
