<svg width="326" height="317" viewBox="0 0 326 317" fill="none" xmlns="http://www.w3.org/2000/svg">
<path d="M319 310H101.5C101.5 230.5 187.5 204 187.5 110.5C187.5 180 88.5003 244 61.5 233.5C34.4998 223.001 -7.49973 201.5 13.5 177C34.4998 152.501 91.9997 40.5009 93 37.0005C94.0003 33.5 80.5003 10 92.0003 10C101.5 10 112.256 37.1276 116.5 37.2064C122.332 37.3147 127.997 37.4674 133.5 37.6687C140.061 37.9087 151.391 7.61546 157.5 8.00022C163.728 8.39245 164.725 39.4656 170.5 40.0229C252 40.0229 319 120 319 310Z" fill="white" stroke="#2B343B" stroke-width="14" stroke-linejoin="round"/>
<path d="M106.5 87.4999C104 95.4996 93.4998 98.0001 85.9999 105.5C78.5 113 81.9997 94.4997 90.4998 84C98.9999 73.5003 101.5 70.5 104 65.0001C106.5 59.5001 109 79.5002 106.5 87.4999Z" fill="#2B343B"/>
<path d="M45.442 185.827C43.4085 192.149 36.5484 190.507 33.7666 192.555C30.9847 194.603 27.6114 189.266 32.4276 183.061C37.2437 176.856 37.9392 178.221 40.7208 174.808C43.5023 171.395 47.4756 179.505 45.442 185.827Z" fill="#2B343B"/>
</svg>
