<svg width="232" height="303" viewBox="0 0 232 303" fill="none" xmlns="http://www.w3.org/2000/svg">
<path d="M143.221 69.0607C149.292 62.4695 153 53.6678 153 44C153 23.5655 136.435 7 116 7C95.5655 7 79 23.5655 79 44C79 53.6678 82.7079 62.4695 88.7791 69.0607C67.0448 79.2896 52 101.388 52 127C52 145.009 59.4385 161.281 71.4108 172.911C22.5099 190.355 7 238.875 7 296H225C225 238.875 209.49 190.355 160.589 172.911C172.561 161.281 180 145.009 180 127C180 101.388 164.955 79.2896 143.221 69.0607Z" fill="white" stroke="#2B343B" stroke-width="14" stroke-linejoin="round"/>
</svg>
