<svg width="460" height="460" viewBox="0 0 460 460" fill="none" xmlns="http://www.w3.org/2000/svg">
<path d="M229 348L130.738 348C108.179 348 99.1549 389 114.947 389H229H344.053C359.845 389 350.821 348 328.262 348L229 348Z" fill="white" stroke="#2B343B" stroke-width="14" stroke-linejoin="round"/>
<path d="M229.078 312L146.056 312C126.996 312 119.372 348 132.714 348H229.078H326.286C339.628 348 332.004 312 312.944 312L229.078 312Z" fill="white" stroke="#2B343B" stroke-width="14" stroke-linejoin="round"/>
<path d="M254.744 234.718L230 111L205.256 234.718L148 119L157.253 237.434L82.5 152.5L142 311H318L377.5 152.5L302.747 237.434L312 119L254.744 234.718Z" fill="white" stroke="#2B343B" stroke-width="14" stroke-linejoin="round"/>
<circle cx="230" cy="91" r="20" fill="white" stroke="#2B343B" stroke-width="14" stroke-linejoin="round"/>
<circle cx="143" cy="101" r="20" fill="white" stroke="#2B343B" stroke-width="14" stroke-linejoin="round"/>
<circle cx="317" cy="101" r="20" fill="white" stroke="#2B343B" stroke-width="14" stroke-linejoin="round"/>
<circle cx="73" cy="133" r="20" fill="white" stroke="#2B343B" stroke-width="14" stroke-linejoin="round"/>
<circle cx="387" cy="133" r="20" fill="white" stroke="#2B343B" stroke-width="14" stroke-linejoin="round"/>
</svg>
