<svg width="314" height="327" viewBox="0 0 314 327" fill="none" xmlns="http://www.w3.org/2000/svg">
<path d="M147 269.5C147 269.5 128 288 93.0209 288C58.0417 288 7 296 7 296L10.5 320C10.5 320 60.0417 313 93.0209 313C126 313 157 303.5 157 303.5C157 303.5 188 313 220.979 313C253.958 313 303.5 320 303.5 320L307 296C307 296 255.958 288 220.979 288C186 288 167 269.5 167 269.5H147Z" fill="#2B343B" stroke="#2B343B" stroke-width="14" stroke-linejoin="round"/>
<path d="M113.498 270C76.9176 270 95.3321 195 121.884 195H192.116C218.668 195 237.082 270 200.502 270H113.498Z" fill="#2B343B" stroke="#2B343B" stroke-width="14" stroke-linejoin="round"/>
<path d="M208.525 195C272.798 148.5 200.298 54 157.299 54C114.3 54 42.3001 148.5 106.573 195H208.525Z" fill="#2B343B" stroke="#2B343B" stroke-width="14" stroke-linejoin="round"/>
<circle cx="156.5" cy="30.5" r="23.5" fill="#2B343B" stroke="#2B343B" stroke-width="14" stroke-linejoin="round"/>
<path d="M99 234H215" stroke="white" stroke-width="14" stroke-linejoin="round"/>
<path d="M118 199H196" stroke="white" stroke-width="14" stroke-linejoin="round"/>
<path d="M133 121H181M157 137L157 105" stroke="white" stroke-width="14" stroke-linecap="round" stroke-linejoin="round"/>
</svg>
