<svg width="460" height="460" viewBox="0 0 460 460" fill="none" xmlns="http://www.w3.org/2000/svg">
<path d="M220 335.5C220 335.5 201 354 166.021 354C131.042 354 80 362 80 362L83.5 386C83.5 386 133.042 379 166.021 379C199 379 230 369.5 230 369.5C230 369.5 261 379 293.979 379C326.958 379 376.5 386 376.5 386L380 362C380 362 328.958 354 293.979 354C259 354 240 335.5 240 335.5H220Z" fill="#2B343B" stroke="#2B343B" stroke-width="14" stroke-linejoin="round"/>
<path d="M183.099 336C143.661 336 163.514 261 192.14 261H267.86C296.486 261 316.339 336 276.901 336H183.099Z" fill="#2B343B" stroke="#2B343B" stroke-width="14" stroke-linejoin="round"/>
<path d="M285.527 261C354.841 214.5 276.655 120 230.283 120C183.912 120 106.265 214.5 175.579 261H285.527Z" fill="#2B343B" stroke="#2B343B" stroke-width="14" stroke-linejoin="round"/>
<circle cx="229.5" cy="96.5" r="23.5" fill="#2B343B" stroke="#2B343B" stroke-width="14" stroke-linejoin="round"/>
<path d="M167 300H293" stroke="white" stroke-width="14" stroke-linejoin="round"/>
<path d="M188 265H272" stroke="white" stroke-width="14" stroke-linejoin="round"/>
<path d="M206 187H254M230 203L230 171" stroke="white" stroke-width="14" stroke-linecap="round" stroke-linejoin="round"/>
</svg>
