<svg width="460" height="460" viewBox="0 0 460 460" fill="none" xmlns="http://www.w3.org/2000/svg">
<path d="M385.182 381.004H167.682C167.682 301.504 233.5 310.5 233.5 231C233.5 271 154.683 315.003 127.682 304.504C100.682 294.004 58.6825 272.503 79.6823 248.004C100.682 223.504 158.182 111.504 159.182 108.004C160.183 104.503 146.683 81.0034 158.183 81.0034C167.683 81.0034 178.438 108.131 182.683 108.21C188.514 108.318 194.179 108.471 199.683 108.672C206.243 108.912 217.574 78.6189 223.683 79.0036C229.91 79.3959 230.907 110.469 236.683 111.026C318.182 111.026 385.182 191.003 385.182 381.004Z" fill="#2B343B" stroke="#2B343B" stroke-width="7" stroke-linejoin="round"/>
<path d="M369.682 359.5C369.682 203 301.182 126 237.682 126" stroke="white" stroke-width="8" stroke-linecap="round" stroke-linejoin="round"/>
<path d="M172.682 158.503C170.182 166.503 159.682 169.004 152.182 176.503C144.683 184.003 148.182 165.503 156.682 155.003C165.182 144.504 167.682 141.503 170.182 136.003C172.682 130.504 175.182 150.504 172.682 158.503Z" fill="white"/>
<path d="M111.624 256.83C109.591 263.152 102.731 261.511 99.9487 263.558C97.1668 265.606 93.7935 260.269 98.6097 254.064C103.426 247.859 104.121 249.225 106.903 245.812C109.684 242.399 113.658 250.508 111.624 256.83Z" fill="white"/>
</svg>
