<svg width="326" height="317" viewBox="0 0 326 317" fill="none" xmlns="http://www.w3.org/2000/svg">
<path d="M319 309.004H101.5C101.5 229.504 187.5 203.004 187.5 109.504C187.5 179.004 88.5003 243.003 61.5 232.504C34.4998 222.004 -7.49973 200.503 13.5 176.004C34.4998 151.504 91.9997 39.5043 93 36.0039C94.0003 32.5034 80.5003 9.00342 92.0003 9.00342C101.5 9.00342 112.256 36.131 116.5 36.2098C122.332 36.3181 127.997 36.4709 133.5 36.6721C140.061 36.9121 151.391 6.61887 157.5 7.00363C163.728 7.39587 164.725 38.4691 170.5 39.0263C252 39.0263 319 119.003 319 309.004Z" fill="#2B343B" stroke="#2B343B" stroke-width="14" stroke-linejoin="round"/>
<path d="M303.5 287.5C303.5 131 235 54 171.5 54" stroke="white" stroke-width="8" stroke-linecap="round" stroke-linejoin="round"/>
<path d="M106.5 86.5033C104 94.5031 93.4998 97.0035 85.9999 104.503C78.5 112.003 81.9997 93.5031 90.4998 83.0034C98.9999 72.5038 101.5 69.5034 104 64.0035C106.5 58.5035 109 78.5036 106.5 86.5033Z" fill="white"/>
<path d="M45.442 184.83C43.4085 191.152 36.5484 189.511 33.7666 191.558C30.9847 193.606 27.6114 188.269 32.4276 182.064C37.2437 175.859 37.9392 177.225 40.7208 173.812C43.5023 170.399 47.4756 178.508 45.442 184.83Z" fill="white"/>
</svg>
