<svg width="460" height="460" viewBox="0 0 460 460" fill="none" xmlns="http://www.w3.org/2000/svg">
<path d="M257.221 147.061C263.292 140.469 267 131.668 267 122C267 101.565 250.435 85 230 85C209.565 85 193 101.565 193 122C193 131.668 196.708 140.469 202.779 147.061C181.045 157.29 166 179.388 166 205C166 223.009 173.439 239.281 185.411 250.911C136.51 268.355 121 316.875 121 374H339C339 316.875 323.49 268.355 274.589 250.911C286.561 239.281 294 223.009 294 205C294 179.388 278.955 157.29 257.221 147.061Z" fill="#2B343B" stroke="#2B343B" stroke-width="14" stroke-linejoin="round"/>
</svg>
