<?xml version="1.0" encoding="UTF-8"?>
<svg width="100" height="100" version="1.1" viewBox="0 0 800 800" xmlns="http://www.w3.org/2000/svg" xmlns:cc="http://creativecommons.org/ns#" xmlns:dc="http://purl.org/dc/elements/1.1/" xmlns:rdf="http://www.w3.org/1999/02/22-rdf-syntax-ns#">
    <metadata>
        <rdf:RDF>
            <cc:Work rdf:about="">
                <dc:format>image/svg+xml</dc:format>
                <dc:type rdf:resource="http://purl.org/dc/dcmitype/StillImage"/>
                <dc:title/>
            </cc:Work>
        </rdf:RDF>
    </metadata>
    <rect x="100" y="0" width="100" height="100" fill="black"/>
    <rect x="300" y="0" width="100" height="100" fill="black"/>
    <rect x="500" y="0" width="100" height="100" fill="black"/>
    <rect x="700" y="0" width="100" height="100" fill="black"/>

    <rect x="0" y="100" width="100" height="100" fill="black"/>
    <rect x="200" y="100" width="100" height="100" fill="black"/>
    <rect x="400" y="100" width="100" height="100" fill="black"/>
    <rect x="600" y="100" width="100" height="100" fill="black"/>

    <rect x="100" y="200" width="100" height="100" fill="black"/>
    <rect x="300" y="200" width="100" height="100" fill="black"/>
    <rect x="500" y="200" width="100" height="100" fill="black"/>
    <rect x="700" y="200" width="100" height="100" fill="black"/>

    <rect x="0" y="300" width="100" height="100" fill="black"/>
    <rect x="200" y="300" width="100" height="100" fill="black"/>
    <rect x="400" y="300" width="100" height="100" fill="black"/>
    <rect x="600" y="300" width="100" height="100" fill="black"/>

    <rect x="100" y="400" width="100" height="100" fill="black"/>
    <rect x="300" y="400" width="100" height="100" fill="black"/>
    <rect x="500" y="400" width="100" height="100" fill="black"/>
    <rect x="700" y="400" width="100" height="100" fill="black"/>

    <rect x="0" y="500" width="100" height="100" fill="black"/>
    <rect x="200" y="500" width="100" height="100" fill="black"/>
    <rect x="400" y="500" width="100" height="100" fill="black"/>
    <rect x="600" y="500" width="100" height="100" fill="black"/>

    <rect x="100" y="600" width="100" height="100" fill="black"/>
    <rect x="300" y="600" width="100" height="100" fill="black"/>
    <rect x="500" y="600" width="100" height="100" fill="black"/>
    <rect x="700" y="600" width="100" height="100" fill="black"/>

    <rect x="0" y="700" width="100" height="100" fill="black"/>
    <rect x="200" y="700" width="100" height="100" fill="black"/>
    <rect x="400" y="700" width="100" height="100" fill="black"/>
    <rect x="600" y="700" width="100" height="100" fill="black"/>
</svg>
